<svg id="圖層_1" data-name="圖層 1" xmlns="http://www.w3.org/2000/svg" xmlns:xlink="http://www.w3.org/1999/xlink" viewBox="0 0 937 319"><defs><style>.cls-1,.cls-4{fill:#2c313c;}.cls-2{fill:url(#未命名漸層_22);}.cls-3{fill:url(#未命名漸層_23);}.cls-4{font-size:124.87px;font-family:NotoSans-Regular, Noto Sans;}</style><linearGradient id="未命名漸層_22" x1="264.58" y1="134.87" x2="264.58" y2="183.45" gradientUnits="userSpaceOnUse"><stop offset="0" stop-color="#4d515a"/><stop offset="0.03" stop-color="#4a4f58"/><stop offset="0.32" stop-color="#393e48"/><stop offset="0.62" stop-color="#2f343f"/><stop offset="1" stop-color="#2c313c"/></linearGradient><linearGradient id="未命名漸層_23" x1="268.19" y1="127.79" x2="268.19" y2="69.67" gradientUnits="userSpaceOnUse"><stop offset="0" stop-color="#4d515a"/><stop offset="0.39" stop-color="#444851"/><stop offset="1" stop-color="#2c313c"/></linearGradient></defs><title>aboutFooter</title><polygon class="cls-1" points="318.82 134.87 257.04 134.87 262.14 143.71 264 146.93 271.06 159.16 221.62 244.8 122.73 244.8 73.28 159.16 122.73 73.52 221.62 73.52 252.95 127.79 314.74 127.79 252.51 20.01 91.84 20.01 11.5 159.16 91.84 298.31 252.51 298.31 332.85 159.16 323.86 143.59 318.82 134.87"/><polygon class="cls-2" points="333 159.16 318.86 183.45 210 183.45 196.16 159.16 210 134.87 318.82 134.87 333 159.16"/><polygon class="cls-3" points="253.05 127.79 314.86 127.79 281.24 69.67 221.53 73.52 253.05 127.79"/><text class="cls-4" transform="translate(347.47 204.4)">About Me</text></svg>